<?xml version="1.0" encoding="utf-8"?>
<!-- Generator: Adobe Illustrator 27.2.0, SVG Export Plug-In . SVG Version: 6.00 Build 0)  -->
<svg version="1.1" id="Layer_1" xmlns="http://www.w3.org/2000/svg" xmlns:xlink="http://www.w3.org/1999/xlink" x="0px" y="0px"
	 viewBox="0 0 512 512" style="enable-background:new 0 0 512 512;" xml:space="preserve">
<style type="text/css">
	.st0{fill:#3C649F;}
</style>
<g>
	<g>
		<g>
			<path class="st0" d="M475.6,236.2l-82.3-70.3c0.1-0.5,0.2-1,0.3-1.5V72.5c-0.1-5.5-4.4-9.9-9.9-10.1h-46c-5.3,0-9.6,4.7-9.6,10.1
				v38.1l-65.9-56.2c-3.6-3.1-8.8-3.1-12.5,0L36.4,236.1c-4.1,3.4-4.6,9.4-1.2,13.6c3.4,4.1,9.4,4.6,13.6,1.2
				c0.1-0.1,0.1-0.1,0.2-0.2L256,74.4l74.1,63.2l44.3,37.7l88.7,75.6c4,3.5,10.1,3,13.6-1.1C480.1,245.7,479.7,239.7,475.6,236.2z
				 M374.3,149.7L347.4,127V81.7h26.9V149.7z"/>
		</g>
	</g>
	<g>
		<g>
			<path d="M433.2,255.6l-27-23.1l-143.9-123c-3.6-3.1-8.8-3.1-12.5,0l-143.9,123l-27,23.1c-4,3.5-4.5,9.5-1.1,13.6
				c3.4,4,9.3,4.5,13.3,1.2l0.1-0.1l12-10.4v190.2c0.1,5.4,4.5,9.8,9.9,9.9h285.8c5.4-0.1,9.8-4.4,9.9-9.9V259.9l12,10.4
				c1.7,1.4,3.8,2.3,6.2,2.3c2.8,0,5.5-1.2,7.3-3.4C437.8,265.1,437.3,259,433.2,255.6z M291.6,440.7h-71.1V330.2h71.1V440.7z
				 M310.8,440.7V320.8c0-5.3-3.9-9.9-9.2-9.9h-91.1c-5.3,0-9.2,4.6-9.2,9.9v119.9h-78.9V243.4L256,129.6l133.6,113.8v197.3H310.8z"
				/>
		</g>
	</g>
</g>
</svg>
