<svg width="22" height="14" viewBox="0 0 22 14" fill="none" xmlns="http://www.w3.org/2000/svg">
<path d="M0.327031 7.87695L0.328034 7.87801L6.15347 13.6754C6.58989 14.1097 7.29577 14.108 7.73018 13.6716C8.16454 13.2351 8.16287 12.5293 7.72645 12.0949L3.81525 8.20266L20.8854 8.20266C21.5011 8.20266 22.0002 7.70353 22.0002 7.08779C22.0002 6.47204 21.5011 5.97291 20.8854 5.97291L3.8153 5.97291L7.72639 2.08066C8.16281 1.64631 8.16448 0.940426 7.73013 0.504008C7.29572 0.0674788 6.58978 0.0659738 6.15342 0.500217L0.327979 6.29756L0.326976 6.29862C-0.109664 6.73442 -0.108272 7.44259 0.327031 7.87695Z" fill="black"/>
</svg>
