<?xml version="1.0" encoding="iso-8859-1"?>
<!-- Uploaded to: SVG Repo, www.svgrepo.com, Generator: SVG Repo Mixer Tools -->
<svg version="1.1" id="Layer_1" xmlns="http://www.w3.org/2000/svg" xmlns:xlink="http://www.w3.org/1999/xlink" 
	 viewBox="0 0 512 512" xml:space="preserve">
<path style="fill:#D7D5D9;" d="M75.158,294.84c-38.617,0-70.035,31.418-70.035,70.034v8.74c0,38.617,31.418,70.034,70.035,70.034
	h360.178c38.617,0,70.034-31.418,70.034-70.034v-8.74c0-38.617-31.418-70.034-70.034-70.034H75.158z"/>
<rect x="336.328" y="327.963" style="fill:#D3EFFD;" width="58.885" height="67.209"/>
<rect x="336.328" y="382.012" style="fill:#73AFD6;" width="58.885" height="18.494"/>
<path style="fill:#5D5D5D;" d="M442.563,419.326H69.437c-6.643,0-12.078-5.435-12.078-12.078l0,0
	c0-6.643,5.435-12.078,12.078-12.078h373.125c6.643,0,12.078,5.435,12.078,12.078l0,0
	C454.641,413.891,449.206,419.326,442.563,419.326z"/>
<g>
	<polygon style="fill:#174F79;" points="227.799,240.682 227.799,395.171 256.124,395.171 256.003,240.682 	"/>
	<polygon style="fill:#174F79;" points="284.449,240.682 284.449,395.171 256.124,395.171 256.003,240.682 	"/>
</g>
<g>
	<path style="fill:#D3EFFD;" d="M284.449,183.585v92.367h28.324v-103.2c0-14.795-11.994-26.789-26.789-26.789h-29.86h-29.86
		c-14.795,0-26.789,11.994-26.789,26.789v103.199h28.324v-92.367h56.651V183.585z"/>
	<path style="fill:#D3EFFD;" d="M256.124,136.148L256.124,136.148c-15.579,0-28.324-12.746-28.324-28.324V92.365
		c0-15.579,12.746-28.324,28.324-28.324l0,0c15.579,0,28.324,12.746,28.324,28.324v15.458
		C284.449,123.402,271.703,136.148,256.124,136.148z"/>
</g>
<path style="fill:#73AFD6;" d="M256.124,246.78L256.124,246.78c-15.579,0-28.324-12.746-28.324-28.324v-44.168
	c0-15.579,12.746-28.324,28.324-28.324l0,0c15.579,0,28.324,12.746,28.324,28.324v44.168
	C284.449,234.034,271.703,246.78,256.124,246.78z"/>
<path style="fill:#D3EFFD;" d="M276.113,153.352c-5.14-5.181-12.253-8.403-20.083-8.403l0,0c-7.83,0-14.943,3.222-20.083,8.403
	l20.083,20.023L276.113,153.352z"/>
<path d="M429.37,282.408H291.929v-3.426h20.721c4.2,0,7.604-3.405,7.604-7.604v-103.2c0-18.964-15.429-34.393-34.393-34.393h-5.607
	c7.17-6.573,11.675-16.01,11.675-26.48V91.85c0-0.055-0.003-0.11-0.004-0.164C291.838,71.948,275.757,55.918,256,55.918
	c-19.811,0-35.929,16.117-35.929,35.929v15.458c0,10.471,4.505,19.907,11.675,26.48h-5.607c-18.964,0-34.393,15.429-34.393,34.393
	v103.2c0,4.199,3.404,7.604,7.604,7.604h20.721v3.426H82.63c-45.562,0-82.63,37.068-82.63,82.63v8.414
	c0,45.562,37.068,82.63,82.63,82.63H429.37c45.562,0,82.63-37.068,82.63-82.63v-8.414C512,319.475,474.932,282.408,429.37,282.408z
	 M235.28,91.846c0-2.33,0.404-4.562,1.116-6.654l40.325,12.286v9.826c0,11.425-9.295,20.721-20.721,20.721
	c-11.426,0-20.721-9.295-20.721-20.721V91.846H235.28z M273.35,80.554l-25.479-7.763c2.498-1.07,5.245-1.666,8.129-1.666
	C263.26,71.126,269.649,74.886,273.35,80.554z M206.954,263.774v-95.596c0-10.579,8.606-19.185,19.185-19.185H256h29.86
	c10.58,0,19.185,8.607,19.185,19.185v95.596h-13.117v-27.665v-57.098v-9.297c0-4.199-3.404-7.604-7.604-7.604
	c-4.2,0-7.604,3.405-7.604,7.604v9.297v57.036h-41.442v-57.036v-9.297c0-4.199-3.404-7.604-7.604-7.604s-7.604,3.405-7.604,7.604
	v9.297v57.098v27.665H206.954z M235.28,271.378v-20.123h41.442v20.123v11.03h-13.117v-17.975c0-4.199-3.404-7.604-7.604-7.604
	c-4.2,0-7.604,3.405-7.604,7.604v17.975h-13.117v-11.03H235.28z M387.612,387.567h-43.678v-52h43.678V387.567z M336.33,402.775
	h58.886h47.345c2.426,0,4.474,2.049,4.474,4.474c0,2.425-2.049,4.474-4.474,4.474H69.436c-2.425,0-4.473-2.049-4.473-4.474
	c0-2.425,2.049-4.474,4.473-4.474H336.33z M235.28,297.615h13.116v83.968h-13.117v-83.968H235.28z M263.604,381.585v-83.968h13.117
	v83.968H263.604z M496.792,373.451c0,37.176-30.246,67.422-67.422,67.422H82.63c-37.176,0-67.422-30.246-67.422-67.422v-8.414
	c0-37.176,30.246-67.422,67.422-67.422h137.442v89.951H69.436c-10.852,0-19.681,8.829-19.681,19.682s8.829,19.682,19.681,19.682
	h373.125c10.852,0,19.682-8.829,19.682-19.682s-8.83-19.682-19.682-19.682H402.82v-59.604c0-4.199-3.404-7.604-7.604-7.604H336.33
	c-4.2,0-7.604,3.405-7.604,7.604v59.604h-36.798v-89.951H429.37c37.176,0,67.422,30.246,67.422,67.422V373.451z"/>
</svg>